HIERARCHY
ROOT joint_Root
{
	OFFSET 0.0 0.0 0.0
	CHANNELS 6 Xposition Yposition Zposition Zrotation Xrotation Yrotation 
	JOINT Hips
	{
		OFFSET 4.5925 91.4895 -427.239
		CHANNELS 6 Xposition Yposition Zposition Zrotation Xrotation Yrotation 
		JOINT Spine
		{
			OFFSET 15.7357 0.0 0.0
			CHANNELS 6 Xposition Yposition Zposition Zrotation Xrotation Yrotation 
			JOINT Chest
			{
				OFFSET 8.98455 -0.406207 0.0
				CHANNELS 6 Xposition Yposition Zposition Zrotation Xrotation Yrotation 
				JOINT Neck
				{
					OFFSET 16.3773 0.0 0.0
					CHANNELS 6 Xposition Yposition Zposition Zrotation Xrotation Yrotation 
					JOINT Head
					{
						OFFSET 6.45672 0.0 0.0
						CHANNELS 6 Xposition Yposition Zposition Zrotation Xrotation Yrotation 
						End Site
						{
							OFFSET 0.0 0.0 0.0
						}
					}
				}
				JOINT Shoulder_L
				{
					OFFSET 12.9942 -0.242716 4.98039
					CHANNELS 6 Xposition Yposition Zposition Zrotation Xrotation Yrotation 
					JOINT UpperArm_L
					{
						OFFSET 5.34809 0.0 0.0
						CHANNELS 6 Xposition Yposition Zposition Zrotation Xrotation Yrotation 
						JOINT LowerArm_L
						{
							OFFSET 24.3286 1.87007e-05 0.0
							CHANNELS 6 Xposition Yposition Zposition Zrotation Xrotation Yrotation 
							JOINT Hand_L
							{
								OFFSET 22.2916 0.0 0.0
								CHANNELS 6 Xposition Yposition Zposition Zrotation Xrotation Yrotation 
								End Site
								{
									OFFSET 0.0 0.0 0.0
								}
							}
						}
					}
				}
				JOINT Shoulder_R
				{
					OFFSET 12.9945 -0.242716 -4.98039
					CHANNELS 6 Xposition Yposition Zposition Zrotation Xrotation Yrotation 
					JOINT UpperArm_R
					{
						OFFSET -5.34813 0.0 0.0
						CHANNELS 6 Xposition Yposition Zposition Zrotation Xrotation Yrotation 
						JOINT LowerArm_R
						{
							OFFSET -24.3289 0.000322201 0.0
							CHANNELS 6 Xposition Yposition Zposition Zrotation Xrotation Yrotation 
							JOINT Hand_R
							{
								OFFSET -22.2915 -0.000108084 0.0
								CHANNELS 6 Xposition Yposition Zposition Zrotation Xrotation Yrotation 
								End Site
								{
									OFFSET 0.0 0.0 0.0
								}
							}
						}
					}
				}
			}
		}
		JOINT UpperLeg_L
		{
			OFFSET -2.19248 -6.46944 0.0
			CHANNELS 6 Xposition Yposition Zposition Zrotation Xrotation Yrotation 
			JOINT LowerLeg_L
			{
				OFFSET 39.0811 0.0 -1.23785e-05
				CHANNELS 6 Xposition Yposition Zposition Zrotation Xrotation Yrotation 
				JOINT Foot_L
				{
					OFFSET 40.9854 0.0 -1.26872e-05
					CHANNELS 6 Xposition Yposition Zposition Zrotation Xrotation Yrotation 
					JOINT Toes_L
					{
						OFFSET 11.7543 0.0 0.0
						CHANNELS 6 Xposition Yposition Zposition Zrotation Xrotation Yrotation 
						End Site
						{
							OFFSET 0.0 0.0 0.0
						}
					}
				}
			}
		}
		JOINT UpperLeg_R
		{
			OFFSET -2.19251 6.46944 0.0
			CHANNELS 6 Xposition Yposition Zposition Zrotation Xrotation Yrotation 
			JOINT LowerLeg_R
			{
				OFFSET -39.0811 -0.00228153 -0.0401928
				CHANNELS 6 Xposition Yposition Zposition Zrotation Xrotation Yrotation 
				JOINT Foot_R
				{
					OFFSET -40.9854 0.0 0.0
					CHANNELS 6 Xposition Yposition Zposition Zrotation Xrotation Yrotation 
					JOINT Toes_R
					{
						OFFSET -11.7543 0.0 0.0
						CHANNELS 6 Xposition Yposition Zposition Zrotation Xrotation Yrotation 
						End Site
						{
							OFFSET 0.0 0.0 0.0
						}
					}
				}
			}
		}
	}
}
MOTION
Frames:	4
Frame Time:	0.0333333
0.000000 0.000000 0.000000 0.000000 0.000000 -0.000000 -3.900350 89.333800 -34.099400 90.741500 -1.550560 2.825770 15.735700 0.000005 -0.000001 92.573300 80.052500 -93.015800 8.984550 -0.406207 -0.000000 12.113500 0.868579 -0.976956 16.377300 -0.000001 -0.000001 3.588310 -3.851610 2.453110 6.456720 -0.000001 -0.000000 -1.023130 -3.833630 0.157220 12.994200 -0.242716 4.980390 -90.928600 3.099540 -73.312900 5.348090 -0.000007 -0.000001 -68.863400 31.235700 -12.109600 24.328600 0.000019 0.000005 7.936680 21.036700 -21.225200 22.291600 -0.000001 0.000005 11.117300 5.247680 1.494140 12.994500 -0.242716 -4.980390 88.827300 8.110950 -81.744600 -5.348130 -0.000001 -0.000004 -56.336800 26.062100 -23.111500 -24.328900 0.000322 -0.000009 1.347490 2.316650 -30.215700 -22.291500 -0.000108 -0.000004 17.956300 5.423020 -3.700960 -2.192480 -6.469440 -0.000000 179.454000 -9.683300 -25.717100 39.081100 -0.000007 -0.000012 0.051227 -0.082204 31.929300 40.985400 -0.000006 -0.000013 1.147210 2.265310 -58.239900 11.754300 -0.000000 0.000003 -0.002444 -0.034145 -17.965300 -2.192510 6.469440 -0.000001 177.238000 17.683700 174.104000 -39.081100 -0.002282 -0.040193 0.034469 -0.039516 38.280900 -40.985400 0.000008 0.000006 9.211630 5.354800 -75.238100 -11.754300 -0.000006 -0.000006 -1.618140 -1.840580 -21.097800
0.000000 0.000000 0.000000 0.000000 0.000000 -0.000000 -3.329970 89.012800 -31.428200 90.861300 -2.047690 2.935840 15.735700 0.000005 -0.000001 92.558100 80.016800 -93.148900 8.984550 -0.406207 -0.000000 12.186200 0.860415 -1.273300 16.377300 -0.000001 -0.000001 3.823880 -3.725760 2.517690 6.456720 -0.000001 -0.000000 -1.125380 -3.719700 -0.054967 12.994200 -0.242716 4.980390 -90.921700 3.085510 -73.359400 5.348090 -0.000007 -0.000001 -69.687300 30.802800 -11.015900 24.328600 0.000019 0.000005 7.053640 22.082700 -18.218600 22.291600 -0.000001 0.000005 10.605900 5.230510 1.942650 12.994500 -0.242716 -4.980390 88.845800 8.067240 -81.830000 -5.348130 -0.000001 -0.000004 -55.223200 25.728500 -24.370700 -24.328900 0.000322 -0.000009 1.304590 2.098230 -31.903700 -22.291500 -0.000108 -0.000004 18.284700 5.423460 -3.715840 -2.192480 -6.469440 -0.000000 178.559000 -10.459700 -26.649600 39.081100 -0.000007 -0.000012 0.072862 -0.118183 31.654200 40.985400 -0.000006 -0.000013 1.990970 3.626910 -56.198400 11.754300 -0.000000 0.000003 -0.002328 -0.032758 -17.908800 -2.192510 6.469440 -0.000001 176.241000 16.586800 175.247000 -39.081100 -0.002282 -0.040193 0.037167 -0.040779 39.726800 -40.985400 0.000008 0.000006 8.719600 4.815680 -75.576800 -11.754300 -0.000006 -0.000006 -0.584371 -0.710882 -21.868600
0.000000 0.000000 0.000000 0.000000 0.000000 -0.000000 -2.658010 88.474600 -28.197900 91.022500 -2.693640 3.533330 15.735700 0.000005 -0.000001 92.735600 79.932900 -93.488900 8.984550 -0.406207 -0.000000 12.353000 0.922050 -1.606160 16.377300 -0.000001 -0.000001 4.161690 -3.670450 2.535890 6.456720 -0.000001 -0.000000 -0.818835 -3.673740 -0.285782 12.994200 -0.242716 4.980390 -90.939400 3.129930 -73.284300 5.348090 -0.000007 -0.000001 -70.107600 30.752700 -10.296000 24.328600 0.000019 0.000005 6.284380 23.500100 -15.439800 22.291600 -0.000001 0.000005 9.828840 5.215000 2.340800 12.994500 -0.242716 -4.980390 88.829500 8.089540 -81.738700 -5.348130 -0.000001 -0.000004 -54.354800 25.575200 -25.106600 -24.328900 0.000322 -0.000009 1.216950 1.849360 -33.381400 -22.291500 -0.000108 -0.000004 18.439200 5.427870 -3.865740 -2.192480 -6.469440 -0.000000 178.654000 -9.432120 -26.391000 39.081100 -0.000007 -0.000012 0.009185 -0.012678 35.917700 40.985400 -0.000006 -0.000013 2.107620 3.473630 -56.609300 11.754300 -0.000000 0.000003 -0.000802 -0.012563 -17.087800 -2.192510 6.469440 -0.000001 174.999000 14.946000 176.500000 -39.081100 -0.002282 -0.040193 0.046737 -0.047452 42.489500 -40.985400 0.000008 0.000006 7.925170 4.180530 -75.684200 -11.754300 -0.000006 -0.000006 -0.022564 -0.181097 -23.977200
0.000000 0.000000 0.000000 0.000000 0.000000 -0.000000 -1.953160 87.931400 -24.919100 91.217900 -3.285800 4.315110 15.735700 0.000005 -0.000001 92.957700 79.818600 -93.891100 8.984550 -0.406207 -0.000000 12.579900 1.001590 -1.977150 16.377300 -0.000001 -0.000001 4.273720 -3.710150 2.394050 6.456720 -0.000001 -0.000000 -0.410722 -3.756590 -0.412175 12.994200 -0.242716 4.980390 -91.031300 3.412390 -73.173900 5.348090 -0.000007 -0.000001 -69.938300 30.474400 -10.057800 24.328600 0.000019 0.000005 5.620570 24.922200 -13.146000 22.291600 -0.000001 0.000005 9.249310 5.200540 2.706110 12.994500 -0.242716 -4.980390 88.735200 8.466310 -81.471800 -5.348130 -0.000001 -0.000004 -53.701200 25.328800 -25.234400 -24.328900 0.000322 -0.000009 1.228380 1.769140 -34.806300 -22.291500 -0.000108 -0.000004 18.586200 5.431920 -4.004870 -2.192480 -6.469440 -0.000000 178.700000 -7.353160 -25.653400 39.081100 -0.000007 -0.000012 -0.082544 0.095952 40.705100 40.985400 -0.000006 -0.000013 1.639850 0.688595 -61.267600 11.754300 -0.000000 0.000003 -0.000024 -0.000293 -16.589000 -2.192510 6.469440 -0.000001 173.895000 13.110400 176.515000 -39.081100 -0.002282 -0.040193 0.070799 -0.062321 47.302000 -40.985400 0.000008 0.000006 7.513590 3.323410 -73.872600 -11.754300 -0.000006 -0.000006 -0.046276 -0.284221 -28.267900
